<svg width="334" height="50" viewBox="0 0 334 50" fill="none" xmlns="http://www.w3.org/2000/svg">
<rect width="50" height="50" rx="25" fill="#662FFF"/>
<rect width="50" height="50" rx="25" fill="url(#paint0_linear_13_3078)" fill-opacity="0.2"/>
<rect x="0.75" y="0.75" width="48.5" height="48.5" rx="24.25" stroke="url(#paint1_linear_13_3078)" stroke-opacity="0.2" stroke-width="1.5"/>
<path d="M23.8333 13.3333L23.6583 13.3391C23.0713 13.3832 22.5227 13.6476 22.1224 14.0793C21.7222 14.5109 21.4998 15.0779 21.5 15.6666V18.9368L18.6673 17.3023C18.1314 16.9928 17.4946 16.909 16.8968 17.0692C16.2991 17.2293 15.7894 17.6203 15.48 18.1563L14.3133 20.1769L14.2282 20.3379C13.9751 20.868 13.9312 21.474 14.1053 22.035C14.2794 22.5959 14.6586 23.0706 15.1673 23.3643L17.9988 24.9999L15.1673 26.6356C14.6314 26.945 14.2404 27.4547 14.0802 28.0524C13.9201 28.6501 14.0039 29.287 14.3133 29.8229L15.48 31.8436L15.5768 31.9976C15.9093 32.4818 16.4122 32.8229 16.985 32.9527C17.5579 33.0824 18.1587 32.9913 18.6673 32.6976L21.5 31.0619V34.3333C21.5 34.9521 21.7458 35.5456 22.1834 35.9832C22.621 36.4208 23.2145 36.6666 23.8333 36.6666H26.1667L26.3417 36.6608C26.9287 36.6166 27.4773 36.3522 27.8776 35.9206C28.2779 35.4889 28.5002 34.9219 28.5 34.3333V31.0619L31.3327 32.6988C31.8686 33.0082 32.5055 33.092 33.1032 32.9319C33.7009 32.7717 34.2106 32.3807 34.52 31.8448L35.6867 29.8241L35.7718 29.6631C36.025 29.133 36.0688 28.527 35.8948 27.9661C35.7207 27.4051 35.3414 26.9304 34.8327 26.6368L32 24.9999L34.8327 23.3643C35.3686 23.0548 35.7596 22.5452 35.9198 21.9474C36.0799 21.3497 35.9961 20.7128 35.6867 20.1769L34.52 18.1563L34.4232 18.0023C34.0907 17.518 33.5879 17.1769 33.015 17.0472C32.4421 16.9174 31.8413 17.0085 31.3327 17.3023L28.5 18.9356V15.6666C28.5 15.0477 28.2542 14.4543 27.8166 14.0167C27.379 13.5791 26.7855 13.3333 26.1667 13.3333H23.8333Z" fill="white"/>
<path d="M71.0898 34.2812C69.5273 34.2812 68.1328 33.9102 66.9062 33.168C65.6875 32.418 64.7227 31.3711 64.0117 30.0273C63.3086 28.6758 62.957 27.0938 62.957 25.2812C62.957 23.4609 63.3086 21.875 64.0117 20.5234C64.7227 19.1719 65.6875 18.125 66.9062 17.3828C68.1328 16.6328 69.5273 16.2578 71.0898 16.2578C72.6445 16.2578 74.0352 16.6328 75.2617 17.3828C76.4883 18.125 77.4531 19.1719 78.1562 20.5234C78.8672 21.875 79.2227 23.4609 79.2227 25.2812C79.2227 26.8672 78.9453 28.2812 78.3906 29.5234C77.8438 30.7656 77.0898 31.7734 76.1289 32.5469L78.4609 35.5117H75.4961L74.125 33.7305C73.1797 34.0977 72.168 34.2812 71.0898 34.2812ZM69.8477 28.1758H72.6602L74.2891 30.2852C74.8438 29.7539 75.2812 29.0703 75.6016 28.2344C75.9297 27.3906 76.0938 26.4062 76.0938 25.2812C76.0938 23.9453 75.875 22.8125 75.4375 21.8828C75 20.9531 74.4023 20.2461 73.6445 19.7617C72.8945 19.2773 72.043 19.0352 71.0898 19.0352C70.1367 19.0352 69.2812 19.2773 68.5234 19.7617C67.7734 20.2461 67.1758 20.9531 66.7305 21.8828C66.293 22.8125 66.0742 23.9453 66.0742 25.2812C66.0742 26.6094 66.293 27.7383 66.7305 28.668C67.1758 29.5898 67.7734 30.293 68.5234 30.7773C69.2812 31.2617 70.1367 31.5039 71.0898 31.5039C71.4961 31.5039 71.8906 31.457 72.2734 31.3633L69.8477 28.1758ZM85.7852 34.2461C84.4883 34.2461 83.4297 33.8281 82.6094 32.9922C81.7891 32.1562 81.3789 30.9453 81.3789 29.3594V21.625H84.332V28.8906C84.332 29.7969 84.5508 30.4844 84.9883 30.9531C85.4258 31.4219 86.0391 31.6562 86.8281 31.6562C87.6094 31.6562 88.2539 31.4141 88.7617 30.9297C89.2773 30.4453 89.5352 29.6758 89.5352 28.6211V21.625H92.5V34H89.5938V32.1016C88.7266 33.5312 87.457 34.2461 85.7852 34.2461ZM95.1367 34V21.625H98.0898V34H95.1367ZM96.6133 19.7852C96.1055 19.7852 95.6836 19.625 95.3477 19.3047C95.0117 18.9766 94.8438 18.5742 94.8438 18.0977C94.8438 17.6211 95.0117 17.2227 95.3477 16.9023C95.6836 16.582 96.1055 16.4219 96.6133 16.4219C97.1133 16.4219 97.5312 16.582 97.8672 16.9023C98.2031 17.2227 98.3711 17.6211 98.3711 18.0977C98.3711 18.5742 98.2031 18.9766 97.8672 19.3047C97.5312 19.625 97.1133 19.7852 96.6133 19.7852ZM106.188 34.2812C104.984 34.2812 103.926 34.0078 103.012 33.4609C102.105 32.9141 101.398 32.1562 100.891 31.1875C100.391 30.2188 100.141 29.0977 100.141 27.8242C100.141 26.5508 100.391 25.4297 100.891 24.4609C101.398 23.4844 102.105 22.7227 103.012 22.1758C103.926 21.6211 104.984 21.3438 106.188 21.3438C107.227 21.3438 108.152 21.5469 108.965 21.9531C109.777 22.3516 110.43 22.9062 110.922 23.6172C111.422 24.3203 111.715 25.1328 111.801 26.0547H108.906C108.797 25.3906 108.512 24.8516 108.051 24.4375C107.598 24.0156 106.988 23.8047 106.223 23.8047C105.254 23.8047 104.496 24.168 103.949 24.8945C103.402 25.6211 103.129 26.5977 103.129 27.8242C103.129 29.043 103.402 30.0156 103.949 30.7422C104.496 31.4609 105.254 31.8203 106.223 31.8203C106.996 31.8203 107.598 31.6172 108.027 31.2109C108.457 30.7969 108.742 30.2461 108.883 29.5586H111.801C111.73 30.4648 111.445 31.2734 110.945 31.9844C110.453 32.6953 109.797 33.2578 108.977 33.6719C108.164 34.0781 107.234 34.2812 106.188 34.2812ZM113.793 34V16.5391H116.746V26.6406H116.781L121.598 21.625H125.148L120.121 26.9688L125.453 34H121.926L117.871 28.7031L116.746 29.8633V34H113.793ZM126.801 34V16.5391H131.254L134.652 25.7148C134.816 26.1992 135.023 26.832 135.273 27.6133C135.523 28.3867 135.75 29.1133 135.953 29.793C136.156 29.1133 136.379 28.3867 136.621 27.6133C136.871 26.832 137.078 26.1992 137.242 25.7148L140.582 16.5391H145.059V34H142.012V25.0938C142.012 24.4766 142.023 23.7188 142.047 22.8203C142.07 21.9219 142.094 21.0273 142.117 20.1367C141.805 21.1211 141.508 22.0625 141.227 22.9609C140.945 23.8516 140.711 24.5625 140.523 25.0938L137.195 34H134.664L131.312 25.0938C131.133 24.5859 130.902 23.9102 130.621 23.0664C130.348 22.2148 130.059 21.3203 129.754 20.3828C129.777 21.2422 129.797 22.0977 129.812 22.9492C129.836 23.793 129.848 24.5078 129.848 25.0938V34H126.801ZM153.285 34.2812C152.051 34.2812 150.98 34.0039 150.074 33.4492C149.168 32.8945 148.469 32.1328 147.977 31.1641C147.492 30.1875 147.25 29.0742 147.25 27.8242C147.25 26.5664 147.5 25.4531 148 24.4844C148.508 23.5078 149.207 22.7422 150.098 22.1875C150.988 21.625 152.012 21.3438 153.168 21.3438C154.355 21.3438 155.395 21.6172 156.285 22.1641C157.176 22.7109 157.867 23.4688 158.359 24.4375C158.852 25.3984 159.098 26.5117 159.098 27.7773V28.5859H150.145C150.184 29.5938 150.48 30.4062 151.035 31.0234C151.59 31.6406 152.363 31.9492 153.355 31.9492C154.098 31.9492 154.711 31.7891 155.195 31.4688C155.68 31.1406 156.008 30.7109 156.18 30.1797H158.945C158.789 30.9844 158.445 31.6953 157.914 32.3125C157.391 32.9297 156.73 33.4141 155.934 33.7656C155.137 34.1094 154.254 34.2812 153.285 34.2812ZM150.168 26.5469H156.262C156.168 25.6641 155.848 24.9688 155.301 24.4609C154.762 23.9453 154.066 23.6875 153.215 23.6875C152.355 23.6875 151.656 23.9453 151.117 24.4609C150.586 24.9688 150.27 25.6641 150.168 26.5469ZM165.895 34.2461C164.816 34.2461 163.875 33.9766 163.07 33.4375C162.266 32.8984 161.641 32.1484 161.195 31.1875C160.758 30.2188 160.539 29.0898 160.539 27.8008C160.539 26.5352 160.762 25.4219 161.207 24.4609C161.652 23.4922 162.277 22.7383 163.082 22.1992C163.887 21.6523 164.816 21.3789 165.871 21.3789C166.676 21.3789 167.398 21.543 168.039 21.8711C168.68 22.1992 169.199 22.7031 169.598 23.3828H169.621V16.5391H172.574V34H169.668V32.1133H169.645C169.254 32.832 168.73 33.3672 168.074 33.7188C167.426 34.0703 166.699 34.2461 165.895 34.2461ZM166.586 31.7734C167.555 31.7734 168.328 31.4141 168.906 30.6953C169.492 29.9688 169.785 29.0039 169.785 27.8008C169.785 26.5977 169.492 25.6367 168.906 24.918C168.328 24.1914 167.555 23.8281 166.586 23.8281C165.672 23.8281 164.934 24.1719 164.371 24.8594C163.809 25.5469 163.527 26.5273 163.527 27.8008C163.527 29.082 163.809 30.0664 164.371 30.7539C164.934 31.4336 165.672 31.7734 166.586 31.7734Z" fill="#161618"/>
<defs>
<linearGradient id="paint0_linear_13_3078" x1="25" y1="0" x2="25" y2="50" gradientUnits="userSpaceOnUse">
<stop stop-color="white"/>
<stop offset="1" stop-color="white" stop-opacity="0"/>
</linearGradient>
<linearGradient id="paint1_linear_13_3078" x1="25" y1="0" x2="25" y2="50" gradientUnits="userSpaceOnUse">
<stop stop-color="white"/>
<stop offset="1" stop-color="white" stop-opacity="0"/>
</linearGradient>
</defs>
</svg>
