<svg width="22" height="11" viewBox="0 0 22 11" fill="none" xmlns="http://www.w3.org/2000/svg">
<path d="M19.7465 0.320553L11 8.84655L2.25351 0.320553C2.09725 0.167901 1.88746 0.0824383 1.66901 0.0824383C1.45056 0.0824383 1.24078 0.167901 1.08451 0.320553C1.00885 0.39469 0.948733 0.48318 0.907695 0.580841C0.866658 0.678502 0.84552 0.78337 0.84552 0.889303C0.84552 0.995235 0.866658 1.1001 0.907695 1.19776C0.948733 1.29542 1.00885 1.38391 1.08451 1.45805L10.3893 10.5301C10.5527 10.6893 10.7718 10.7785 11 10.7785C11.2282 10.7785 11.4474 10.6893 11.6108 10.5301L20.9155 1.4598C20.9917 1.38561 21.0523 1.2969 21.0936 1.19892C21.135 1.10093 21.1563 0.995657 21.1563 0.889303C21.1563 0.782948 21.135 0.677672 21.0936 0.579687C21.0523 0.481702 20.9917 0.392995 20.9155 0.318802C20.7592 0.16615 20.5495 0.0806885 20.331 0.0806885C20.1126 0.0806885 19.9028 0.16615 19.7465 0.318802V0.320553Z" fill="#383540"/>
</svg>
